<mxfile host="app.diagrams.net" agent="Mozilla/5.0 (Windows NT 10.0; Win64; x64) AppleWebKit/537.36 (KHTML, like Gecko) Chrome/129.0.0.0 Safari/537.36" version="24.7.17">
  <diagram name="Page-1" id="96zTGkCK_pAWWn0Q6g7E">
    <mxGraphModel dx="2501" dy="1907" grid="1" gridSize="10" guides="1" tooltips="1" connect="1" arrows="1" fold="1" page="1" pageScale="1" pageWidth="827" pageHeight="1169" math="0" shadow="0">
      <root>
        <mxCell id="0" />
        <mxCell id="1" parent="0" />
        <mxCell id="Bff2i-X7J1a3gPwycmxD-1" value="Patient" style="rounded=0;whiteSpace=wrap;html=1;" parent="1" vertex="1">
          <mxGeometry x="-80" y="40" width="120" height="60" as="geometry" />
        </mxCell>
        <mxCell id="Bff2i-X7J1a3gPwycmxD-2" value="&lt;div&gt;1.0&lt;/div&gt;Login / Register&amp;nbsp;" style="ellipse;whiteSpace=wrap;html=1;aspect=fixed;" parent="1" vertex="1">
          <mxGeometry x="230" y="40" width="100" height="100" as="geometry" />
        </mxCell>
        <mxCell id="Bff2i-X7J1a3gPwycmxD-3" value="Staff" style="rounded=0;whiteSpace=wrap;html=1;" parent="1" vertex="1">
          <mxGeometry x="-70" y="130" width="120" height="60" as="geometry" />
        </mxCell>
        <mxCell id="Bff2i-X7J1a3gPwycmxD-4" value="&#xa;&lt;span style=&quot;color: rgb(0, 0, 0); font-family: Helvetica; font-size: 11px; font-style: normal; font-variant-ligatures: normal; font-variant-caps: normal; font-weight: 400; letter-spacing: normal; orphans: 2; text-align: center; text-indent: 0px; text-transform: none; widows: 2; word-spacing: 0px; -webkit-text-stroke-width: 0px; white-space: nowrap; background-color: rgb(255, 255, 255); text-decoration-thickness: initial; text-decoration-style: initial; text-decoration-color: initial; display: inline !important; float: none;&quot;&gt;Login / Registration Details&lt;/span&gt;&#xa;&#xa;" style="endArrow=classic;html=1;rounded=0;entryX=-0.006;entryY=0.428;entryDx=0;entryDy=0;entryPerimeter=0;exitX=1;exitY=0.5;exitDx=0;exitDy=0;" parent="1" source="Bff2i-X7J1a3gPwycmxD-1" target="Bff2i-X7J1a3gPwycmxD-2" edge="1">
          <mxGeometry width="50" height="50" relative="1" as="geometry">
            <mxPoint x="120" y="120" as="sourcePoint" />
            <mxPoint x="170" y="70" as="targetPoint" />
          </mxGeometry>
        </mxCell>
        <mxCell id="Bff2i-X7J1a3gPwycmxD-5" value="Login / Registration Details" style="endArrow=classic;html=1;rounded=0;entryX=0;entryY=0.5;entryDx=0;entryDy=0;exitX=1;exitY=0.5;exitDx=0;exitDy=0;" parent="1" source="Bff2i-X7J1a3gPwycmxD-3" target="Bff2i-X7J1a3gPwycmxD-2" edge="1">
          <mxGeometry width="50" height="50" relative="1" as="geometry">
            <mxPoint x="50" y="80" as="sourcePoint" />
            <mxPoint x="239" y="93" as="targetPoint" />
          </mxGeometry>
        </mxCell>
        <mxCell id="Bff2i-X7J1a3gPwycmxD-6" value="1.1&lt;div&gt;Login&lt;/div&gt;" style="ellipse;whiteSpace=wrap;html=1;aspect=fixed;" parent="1" vertex="1">
          <mxGeometry x="470" y="220" width="100" height="100" as="geometry" />
        </mxCell>
        <mxCell id="Bff2i-X7J1a3gPwycmxD-8" value="1.2&lt;div&gt;Registration&lt;/div&gt;" style="ellipse;whiteSpace=wrap;html=1;aspect=fixed;" parent="1" vertex="1">
          <mxGeometry x="510" y="20" width="100" height="100" as="geometry" />
        </mxCell>
        <mxCell id="Bff2i-X7J1a3gPwycmxD-9" value="Enter Required Details&lt;div&gt;for Registeration&lt;/div&gt;" style="endArrow=classic;html=1;rounded=0;entryX=0;entryY=0.5;entryDx=0;entryDy=0;exitX=1;exitY=0.5;exitDx=0;exitDy=0;" parent="1" source="Bff2i-X7J1a3gPwycmxD-2" target="Bff2i-X7J1a3gPwycmxD-8" edge="1">
          <mxGeometry width="50" height="50" relative="1" as="geometry">
            <mxPoint x="350" y="120" as="sourcePoint" />
            <mxPoint x="400" y="70" as="targetPoint" />
          </mxGeometry>
        </mxCell>
        <mxCell id="Bff2i-X7J1a3gPwycmxD-10" value="Registered User Credentials&amp;nbsp;" style="endArrow=classic;html=1;rounded=0;exitX=0.5;exitY=1;exitDx=0;exitDy=0;entryX=0;entryY=0.5;entryDx=0;entryDy=0;" parent="1" source="Bff2i-X7J1a3gPwycmxD-2" target="Bff2i-X7J1a3gPwycmxD-6" edge="1">
          <mxGeometry width="50" height="50" relative="1" as="geometry">
            <mxPoint x="290" y="230" as="sourcePoint" />
            <mxPoint x="340" y="180" as="targetPoint" />
          </mxGeometry>
        </mxCell>
        <mxCell id="Bff2i-X7J1a3gPwycmxD-11" value="&amp;nbsp;D1&amp;nbsp; &amp;nbsp; User Details" style="html=1;dashed=0;whiteSpace=wrap;shape=mxgraph.dfd.dataStoreID;align=left;spacingLeft=3;points=[[0,0],[0.5,0],[1,0],[0,0.5],[1,0.5],[0,1],[0.5,1],[1,1]];" parent="1" vertex="1">
          <mxGeometry x="710" y="160" width="160" height="30" as="geometry" />
        </mxCell>
        <mxCell id="Bff2i-X7J1a3gPwycmxD-12" value="Save User Details" style="endArrow=classic;html=1;rounded=0;entryX=0.5;entryY=0;entryDx=0;entryDy=0;exitX=1.01;exitY=0.603;exitDx=0;exitDy=0;exitPerimeter=0;" parent="1" source="Bff2i-X7J1a3gPwycmxD-8" target="Bff2i-X7J1a3gPwycmxD-11" edge="1">
          <mxGeometry width="50" height="50" relative="1" as="geometry">
            <mxPoint x="690" y="100" as="sourcePoint" />
            <mxPoint x="740" y="50" as="targetPoint" />
          </mxGeometry>
        </mxCell>
        <mxCell id="Bff2i-X7J1a3gPwycmxD-13" value="Login Credentials" style="endArrow=classic;html=1;rounded=0;entryX=0.669;entryY=0.035;entryDx=0;entryDy=0;entryPerimeter=0;exitX=0.5;exitY=1;exitDx=0;exitDy=0;" parent="1" source="Bff2i-X7J1a3gPwycmxD-8" target="Bff2i-X7J1a3gPwycmxD-6" edge="1">
          <mxGeometry width="50" height="50" relative="1" as="geometry">
            <mxPoint x="590" y="280" as="sourcePoint" />
            <mxPoint x="640" y="230" as="targetPoint" />
          </mxGeometry>
        </mxCell>
        <mxCell id="Bff2i-X7J1a3gPwycmxD-14" value="Confirmation Request&amp;nbsp;&lt;div&gt;for Credentials&lt;/div&gt;" style="endArrow=classic;html=1;rounded=0;entryX=0;entryY=0.5;entryDx=0;entryDy=0;exitX=1;exitY=0;exitDx=0;exitDy=0;" parent="1" source="Bff2i-X7J1a3gPwycmxD-6" target="Bff2i-X7J1a3gPwycmxD-11" edge="1">
          <mxGeometry width="50" height="50" relative="1" as="geometry">
            <mxPoint x="580" y="270" as="sourcePoint" />
            <mxPoint x="630" y="220" as="targetPoint" />
          </mxGeometry>
        </mxCell>
        <mxCell id="Bff2i-X7J1a3gPwycmxD-15" value="Send Confirmation" style="endArrow=classic;html=1;rounded=0;entryX=1;entryY=0.5;entryDx=0;entryDy=0;exitX=0.303;exitY=1.145;exitDx=0;exitDy=0;exitPerimeter=0;" parent="1" source="Bff2i-X7J1a3gPwycmxD-11" target="Bff2i-X7J1a3gPwycmxD-6" edge="1">
          <mxGeometry width="50" height="50" relative="1" as="geometry">
            <mxPoint x="670" y="310" as="sourcePoint" />
            <mxPoint x="720" y="260" as="targetPoint" />
            <Array as="points">
              <mxPoint x="740" y="260" />
              <mxPoint x="680" y="270" />
            </Array>
          </mxGeometry>
        </mxCell>
        <mxCell id="Bff2i-X7J1a3gPwycmxD-16" value="2.0&lt;div&gt;Virtual Triage&lt;/div&gt;" style="ellipse;whiteSpace=wrap;html=1;aspect=fixed;" parent="1" vertex="1">
          <mxGeometry x="170" y="280" width="100" height="100" as="geometry" />
        </mxCell>
        <mxCell id="Bff2i-X7J1a3gPwycmxD-17" value="" style="endArrow=classic;html=1;rounded=0;entryX=1;entryY=0.5;entryDx=0;entryDy=0;exitX=0;exitY=0.7;exitDx=0;exitDy=0;exitPerimeter=0;" parent="1" source="Bff2i-X7J1a3gPwycmxD-6" target="Bff2i-X7J1a3gPwycmxD-16" edge="1">
          <mxGeometry width="50" height="50" relative="1" as="geometry">
            <mxPoint x="330" y="340" as="sourcePoint" />
            <mxPoint x="380" y="290" as="targetPoint" />
          </mxGeometry>
        </mxCell>
        <mxCell id="Bff2i-X7J1a3gPwycmxD-18" value="2.1&lt;div&gt;Virtual Triage Assessment&lt;/div&gt;" style="ellipse;whiteSpace=wrap;html=1;aspect=fixed;" parent="1" vertex="1">
          <mxGeometry x="-100" y="250" width="100" height="100" as="geometry" />
        </mxCell>
        <mxCell id="Bff2i-X7J1a3gPwycmxD-19" value="Enter Responses for&amp;nbsp;&lt;div&gt;the assessment&lt;/div&gt;" style="endArrow=classic;html=1;rounded=0;entryX=1;entryY=0.5;entryDx=0;entryDy=0;exitX=-0.007;exitY=0.444;exitDx=0;exitDy=0;exitPerimeter=0;" parent="1" source="Bff2i-X7J1a3gPwycmxD-16" target="Bff2i-X7J1a3gPwycmxD-18" edge="1">
          <mxGeometry width="50" height="50" relative="1" as="geometry">
            <mxPoint x="90" y="410" as="sourcePoint" />
            <mxPoint x="140" y="360" as="targetPoint" />
          </mxGeometry>
        </mxCell>
        <mxCell id="Bff2i-X7J1a3gPwycmxD-20" value="&amp;nbsp;D2&amp;nbsp; &amp;nbsp; Triage Assessment" style="html=1;dashed=0;whiteSpace=wrap;shape=mxgraph.dfd.dataStoreID;align=left;spacingLeft=3;points=[[0,0],[0.5,0],[1,0],[0,0.5],[1,0.5],[0,1],[0.5,1],[1,1]];" parent="1" vertex="1">
          <mxGeometry x="-189" y="430" width="160" height="30" as="geometry" />
        </mxCell>
        <mxCell id="Bff2i-X7J1a3gPwycmxD-21" value="Save Patient Triage Responses" style="endArrow=classic;html=1;rounded=0;entryX=0.354;entryY=-0.064;entryDx=0;entryDy=0;entryPerimeter=0;exitX=0.5;exitY=1;exitDx=0;exitDy=0;" parent="1" source="Bff2i-X7J1a3gPwycmxD-18" target="Bff2i-X7J1a3gPwycmxD-20" edge="1">
          <mxGeometry width="50" height="50" relative="1" as="geometry">
            <mxPoint x="-190" y="430" as="sourcePoint" />
            <mxPoint x="-140" y="380" as="targetPoint" />
          </mxGeometry>
        </mxCell>
        <mxCell id="Bff2i-X7J1a3gPwycmxD-22" value="2.2&amp;nbsp;&lt;div&gt;Virtual Triage Diagnosis&amp;nbsp;&lt;/div&gt;" style="ellipse;whiteSpace=wrap;html=1;aspect=fixed;" parent="1" vertex="1">
          <mxGeometry x="150" y="430" width="100" height="100" as="geometry" />
        </mxCell>
        <mxCell id="Bff2i-X7J1a3gPwycmxD-23" value="Request Patient Triage&amp;nbsp;&lt;div&gt;Assessment Responses&lt;/div&gt;" style="endArrow=classic;html=1;rounded=0;entryX=1;entryY=0.5;entryDx=0;entryDy=0;exitX=0.006;exitY=0.41;exitDx=0;exitDy=0;exitPerimeter=0;" parent="1" source="Bff2i-X7J1a3gPwycmxD-22" target="Bff2i-X7J1a3gPwycmxD-20" edge="1">
          <mxGeometry width="50" height="50" relative="1" as="geometry">
            <mxPoint x="10" y="540" as="sourcePoint" />
            <mxPoint x="60" y="490" as="targetPoint" />
          </mxGeometry>
        </mxCell>
        <mxCell id="Bff2i-X7J1a3gPwycmxD-24" value="Send Patient Assessment Responses" style="endArrow=classic;html=1;rounded=0;exitX=0.435;exitY=1.119;exitDx=0;exitDy=0;exitPerimeter=0;" parent="1" source="Bff2i-X7J1a3gPwycmxD-20" target="Bff2i-X7J1a3gPwycmxD-22" edge="1">
          <mxGeometry width="50" height="50" relative="1" as="geometry">
            <mxPoint x="-70" y="580" as="sourcePoint" />
            <mxPoint x="-20" y="530" as="targetPoint" />
            <Array as="points">
              <mxPoint x="-10" y="520" />
              <mxPoint x="70" y="520" />
            </Array>
          </mxGeometry>
        </mxCell>
        <mxCell id="Bff2i-X7J1a3gPwycmxD-25" value="Nurse" style="rounded=0;whiteSpace=wrap;html=1;" parent="1" vertex="1">
          <mxGeometry x="400" y="390" width="120" height="60" as="geometry" />
        </mxCell>
        <mxCell id="Bff2i-X7J1a3gPwycmxD-26" value="Diagnose Patient&amp;nbsp;&lt;div&gt;Assessment&lt;/div&gt;" style="endArrow=classic;html=1;rounded=0;entryX=1;entryY=0.5;entryDx=0;entryDy=0;exitX=0;exitY=0.5;exitDx=0;exitDy=0;" parent="1" source="Bff2i-X7J1a3gPwycmxD-25" target="Bff2i-X7J1a3gPwycmxD-22" edge="1">
          <mxGeometry width="50" height="50" relative="1" as="geometry">
            <mxPoint x="300" y="540" as="sourcePoint" />
            <mxPoint x="350" y="490" as="targetPoint" />
          </mxGeometry>
        </mxCell>
        <mxCell id="ymnrK0_jYS6dcsCfefe1-1" value="" style="endArrow=classic;html=1;rounded=0;entryX=0.35;entryY=0.016;entryDx=0;entryDy=0;entryPerimeter=0;exitX=0.5;exitY=1;exitDx=0;exitDy=0;" parent="1" source="Bff2i-X7J1a3gPwycmxD-22" target="ymnrK0_jYS6dcsCfefe1-2" edge="1">
          <mxGeometry width="50" height="50" relative="1" as="geometry">
            <mxPoint x="190" y="610" as="sourcePoint" />
            <mxPoint x="240" y="560" as="targetPoint" />
          </mxGeometry>
        </mxCell>
        <mxCell id="ymnrK0_jYS6dcsCfefe1-2" value="3.0&lt;div&gt;ED Required/Not Required&lt;/div&gt;" style="ellipse;whiteSpace=wrap;html=1;aspect=fixed;" parent="1" vertex="1">
          <mxGeometry x="190" y="600" width="100" height="100" as="geometry" />
        </mxCell>
        <mxCell id="ymnrK0_jYS6dcsCfefe1-3" value="3.1&amp;nbsp;&lt;div&gt;ED Required&lt;/div&gt;" style="ellipse;whiteSpace=wrap;html=1;aspect=fixed;" parent="1" vertex="1">
          <mxGeometry x="-10" y="710" width="100" height="100" as="geometry" />
        </mxCell>
        <mxCell id="ymnrK0_jYS6dcsCfefe1-4" value="3.2&lt;div&gt;ED Not Required&lt;/div&gt;" style="ellipse;whiteSpace=wrap;html=1;aspect=fixed;" parent="1" vertex="1">
          <mxGeometry x="360" y="710" width="100" height="100" as="geometry" />
        </mxCell>
        <mxCell id="ymnrK0_jYS6dcsCfefe1-5" value="" style="endArrow=classic;html=1;rounded=0;entryX=0.5;entryY=0;entryDx=0;entryDy=0;exitX=0;exitY=0.5;exitDx=0;exitDy=0;" parent="1" source="ymnrK0_jYS6dcsCfefe1-2" target="ymnrK0_jYS6dcsCfefe1-3" edge="1">
          <mxGeometry width="50" height="50" relative="1" as="geometry">
            <mxPoint x="-60" y="660" as="sourcePoint" />
            <mxPoint x="-10" y="610" as="targetPoint" />
          </mxGeometry>
        </mxCell>
        <mxCell id="ymnrK0_jYS6dcsCfefe1-6" value="" style="endArrow=classic;html=1;rounded=0;entryX=0;entryY=0;entryDx=0;entryDy=0;exitX=1;exitY=0.5;exitDx=0;exitDy=0;" parent="1" source="ymnrK0_jYS6dcsCfefe1-2" target="ymnrK0_jYS6dcsCfefe1-4" edge="1">
          <mxGeometry width="50" height="50" relative="1" as="geometry">
            <mxPoint x="280" y="780" as="sourcePoint" />
            <mxPoint x="330" y="730" as="targetPoint" />
          </mxGeometry>
        </mxCell>
        <mxCell id="ymnrK0_jYS6dcsCfefe1-7" value="" style="endArrow=classic;html=1;rounded=0;entryX=0.5;entryY=0;entryDx=0;entryDy=0;exitX=0.434;exitY=1.004;exitDx=0;exitDy=0;exitPerimeter=0;" parent="1" source="Bff2i-X7J1a3gPwycmxD-16" target="Bff2i-X7J1a3gPwycmxD-22" edge="1">
          <mxGeometry width="50" height="50" relative="1" as="geometry">
            <mxPoint x="90" y="410" as="sourcePoint" />
            <mxPoint x="140" y="360" as="targetPoint" />
          </mxGeometry>
        </mxCell>
        <mxCell id="ymnrK0_jYS6dcsCfefe1-8" value="5.0&lt;div&gt;Alternative Methods&lt;/div&gt;" style="ellipse;whiteSpace=wrap;html=1;aspect=fixed;" parent="1" vertex="1">
          <mxGeometry x="550" y="585" width="100" height="100" as="geometry" />
        </mxCell>
        <mxCell id="ymnrK0_jYS6dcsCfefe1-9" value="" style="endArrow=classic;html=1;rounded=0;entryX=0.018;entryY=0.65;entryDx=0;entryDy=0;entryPerimeter=0;exitX=1;exitY=0;exitDx=0;exitDy=0;" parent="1" source="ymnrK0_jYS6dcsCfefe1-4" target="ymnrK0_jYS6dcsCfefe1-8" edge="1">
          <mxGeometry width="50" height="50" relative="1" as="geometry">
            <mxPoint x="410" y="660" as="sourcePoint" />
            <mxPoint x="460" y="610" as="targetPoint" />
          </mxGeometry>
        </mxCell>
        <mxCell id="aXVEYFe5cARRdrmqYQfY-1" value="5.1&lt;div&gt;Counter Medication&lt;/div&gt;" style="ellipse;whiteSpace=wrap;html=1;aspect=fixed;" vertex="1" parent="1">
          <mxGeometry x="780" y="535" width="100" height="100" as="geometry" />
        </mxCell>
        <mxCell id="aXVEYFe5cARRdrmqYQfY-2" value="" style="endArrow=classic;html=1;rounded=0;exitX=1;exitY=0.5;exitDx=0;exitDy=0;" edge="1" parent="1" source="ymnrK0_jYS6dcsCfefe1-8" target="aXVEYFe5cARRdrmqYQfY-1">
          <mxGeometry width="50" height="50" relative="1" as="geometry">
            <mxPoint x="620" y="560" as="sourcePoint" />
            <mxPoint x="670" y="510" as="targetPoint" />
          </mxGeometry>
        </mxCell>
        <mxCell id="aXVEYFe5cARRdrmqYQfY-3" value="5.2&lt;div&gt;Primary Care Clinic Recommendation&amp;nbsp;&lt;/div&gt;" style="ellipse;whiteSpace=wrap;html=1;aspect=fixed;" vertex="1" parent="1">
          <mxGeometry x="630" y="450" width="110" height="110" as="geometry" />
        </mxCell>
        <mxCell id="aXVEYFe5cARRdrmqYQfY-4" value="" style="endArrow=classic;html=1;rounded=0;entryX=-0.009;entryY=0.664;entryDx=0;entryDy=0;entryPerimeter=0;exitX=0.61;exitY=0.01;exitDx=0;exitDy=0;exitPerimeter=0;" edge="1" parent="1" source="ymnrK0_jYS6dcsCfefe1-8" target="aXVEYFe5cARRdrmqYQfY-3">
          <mxGeometry width="50" height="50" relative="1" as="geometry">
            <mxPoint x="560" y="560" as="sourcePoint" />
            <mxPoint x="610" y="510" as="targetPoint" />
          </mxGeometry>
        </mxCell>
        <mxCell id="aXVEYFe5cARRdrmqYQfY-5" value="Doctor" style="rounded=0;whiteSpace=wrap;html=1;" vertex="1" parent="1">
          <mxGeometry x="827" y="350" width="120" height="60" as="geometry" />
        </mxCell>
        <mxCell id="aXVEYFe5cARRdrmqYQfY-6" value="Provide medication&amp;nbsp;&lt;div&gt;based on assessment&lt;/div&gt;" style="endArrow=classic;html=1;rounded=0;entryX=0.5;entryY=0;entryDx=0;entryDy=0;exitX=0.5;exitY=1;exitDx=0;exitDy=0;" edge="1" parent="1" source="aXVEYFe5cARRdrmqYQfY-5" target="aXVEYFe5cARRdrmqYQfY-1">
          <mxGeometry width="50" height="50" relative="1" as="geometry">
            <mxPoint x="920" y="490" as="sourcePoint" />
            <mxPoint x="970" y="440" as="targetPoint" />
          </mxGeometry>
        </mxCell>
        <mxCell id="aXVEYFe5cARRdrmqYQfY-7" value="6.0&lt;div&gt;View&lt;/div&gt;" style="ellipse;whiteSpace=wrap;html=1;aspect=fixed;" vertex="1" parent="1">
          <mxGeometry x="300" y="-150" width="100" height="100" as="geometry" />
        </mxCell>
        <mxCell id="aXVEYFe5cARRdrmqYQfY-8" value="" style="endArrow=classic;html=1;rounded=0;entryX=0.35;entryY=0.98;entryDx=0;entryDy=0;entryPerimeter=0;exitX=0.5;exitY=0;exitDx=0;exitDy=0;" edge="1" parent="1" source="Bff2i-X7J1a3gPwycmxD-2" target="aXVEYFe5cARRdrmqYQfY-7">
          <mxGeometry width="50" height="50" relative="1" as="geometry">
            <mxPoint x="260" y="20" as="sourcePoint" />
            <mxPoint x="310" y="-30" as="targetPoint" />
          </mxGeometry>
        </mxCell>
        <mxCell id="aXVEYFe5cARRdrmqYQfY-9" value="6.1&lt;div&gt;Virtual Assessment results&lt;/div&gt;" style="ellipse;whiteSpace=wrap;html=1;aspect=fixed;" vertex="1" parent="1">
          <mxGeometry x="530" y="-140" width="100" height="100" as="geometry" />
        </mxCell>
        <mxCell id="aXVEYFe5cARRdrmqYQfY-10" value="" style="endArrow=classic;html=1;rounded=0;exitX=0.98;exitY=0.71;exitDx=0;exitDy=0;exitPerimeter=0;" edge="1" parent="1" source="aXVEYFe5cARRdrmqYQfY-7" target="aXVEYFe5cARRdrmqYQfY-9">
          <mxGeometry width="50" height="50" relative="1" as="geometry">
            <mxPoint x="440" y="10" as="sourcePoint" />
            <mxPoint x="490" y="-40" as="targetPoint" />
          </mxGeometry>
        </mxCell>
        <mxCell id="aXVEYFe5cARRdrmqYQfY-14" value="" style="endArrow=classic;html=1;rounded=0;exitX=0.88;exitY=0.22;exitDx=0;exitDy=0;exitPerimeter=0;entryX=0;entryY=0.5;entryDx=0;entryDy=0;" edge="1" parent="1" source="aXVEYFe5cARRdrmqYQfY-7" target="aXVEYFe5cARRdrmqYQfY-20">
          <mxGeometry width="50" height="50" relative="1" as="geometry">
            <mxPoint x="470" y="-140" as="sourcePoint" />
            <mxPoint x="580" y="-200" as="targetPoint" />
          </mxGeometry>
        </mxCell>
        <mxCell id="aXVEYFe5cARRdrmqYQfY-15" value="4.0&lt;div&gt;Appointment&lt;/div&gt;" style="ellipse;whiteSpace=wrap;html=1;aspect=fixed;" vertex="1" parent="1">
          <mxGeometry x="-50" y="880" width="100" height="100" as="geometry" />
        </mxCell>
        <mxCell id="aXVEYFe5cARRdrmqYQfY-16" value="" style="endArrow=classic;html=1;rounded=0;entryX=0.5;entryY=0;entryDx=0;entryDy=0;exitX=0.5;exitY=1;exitDx=0;exitDy=0;" edge="1" parent="1" source="ymnrK0_jYS6dcsCfefe1-3" target="aXVEYFe5cARRdrmqYQfY-15">
          <mxGeometry width="50" height="50" relative="1" as="geometry">
            <mxPoint x="-130" y="860" as="sourcePoint" />
            <mxPoint x="-80" y="810" as="targetPoint" />
          </mxGeometry>
        </mxCell>
        <mxCell id="aXVEYFe5cARRdrmqYQfY-18" value="4.1&lt;div&gt;Appointment Booking&lt;/div&gt;" style="ellipse;whiteSpace=wrap;html=1;aspect=fixed;" vertex="1" parent="1">
          <mxGeometry x="-270" y="720" width="100" height="100" as="geometry" />
        </mxCell>
        <mxCell id="aXVEYFe5cARRdrmqYQfY-20" value="6.2&lt;div&gt;Appointment&lt;/div&gt;" style="ellipse;whiteSpace=wrap;html=1;aspect=fixed;" vertex="1" parent="1">
          <mxGeometry x="490" y="-330" width="100" height="100" as="geometry" />
        </mxCell>
        <mxCell id="aXVEYFe5cARRdrmqYQfY-21" value="6.2.1&lt;div&gt;Appointment Status&lt;/div&gt;" style="ellipse;whiteSpace=wrap;html=1;aspect=fixed;" vertex="1" parent="1">
          <mxGeometry x="670" y="-400" width="100" height="100" as="geometry" />
        </mxCell>
        <mxCell id="aXVEYFe5cARRdrmqYQfY-22" value="6.2.2&lt;div&gt;Appointment Cancellation&lt;/div&gt;" style="ellipse;whiteSpace=wrap;html=1;aspect=fixed;" vertex="1" parent="1">
          <mxGeometry x="690" y="-290" width="100" height="100" as="geometry" />
        </mxCell>
        <mxCell id="aXVEYFe5cARRdrmqYQfY-23" value="" style="endArrow=classic;html=1;rounded=0;entryX=0;entryY=0.5;entryDx=0;entryDy=0;exitX=1;exitY=0.5;exitDx=0;exitDy=0;" edge="1" parent="1" source="aXVEYFe5cARRdrmqYQfY-20" target="aXVEYFe5cARRdrmqYQfY-22">
          <mxGeometry width="50" height="50" relative="1" as="geometry">
            <mxPoint x="600" y="-180" as="sourcePoint" />
            <mxPoint x="650" y="-230" as="targetPoint" />
          </mxGeometry>
        </mxCell>
        <mxCell id="aXVEYFe5cARRdrmqYQfY-24" value="" style="endArrow=classic;html=1;rounded=0;entryX=0;entryY=0.5;entryDx=0;entryDy=0;exitX=1;exitY=0.5;exitDx=0;exitDy=0;" edge="1" parent="1" source="aXVEYFe5cARRdrmqYQfY-20" target="aXVEYFe5cARRdrmqYQfY-21">
          <mxGeometry width="50" height="50" relative="1" as="geometry">
            <mxPoint x="520" y="-340" as="sourcePoint" />
            <mxPoint x="570" y="-390" as="targetPoint" />
          </mxGeometry>
        </mxCell>
        <mxCell id="aXVEYFe5cARRdrmqYQfY-25" value="" style="endArrow=classic;html=1;rounded=0;entryX=1;entryY=0.5;entryDx=0;entryDy=0;exitX=0;exitY=0.5;exitDx=0;exitDy=0;" edge="1" parent="1" source="aXVEYFe5cARRdrmqYQfY-15" target="aXVEYFe5cARRdrmqYQfY-18">
          <mxGeometry width="50" height="50" relative="1" as="geometry">
            <mxPoint x="-70" y="880" as="sourcePoint" />
            <mxPoint x="-20" y="830" as="targetPoint" />
          </mxGeometry>
        </mxCell>
        <mxCell id="aXVEYFe5cARRdrmqYQfY-26" value="&amp;nbsp;D2&amp;nbsp; &amp;nbsp; Triage Assessment" style="html=1;dashed=0;whiteSpace=wrap;shape=mxgraph.dfd.dataStoreID;align=left;spacingLeft=3;points=[[0,0],[0.5,0],[1,0],[0,0.5],[1,0.5],[0,1],[0.5,1],[1,1]];" vertex="1" parent="1">
          <mxGeometry x="350" y="600" width="160" height="30" as="geometry" />
        </mxCell>
        <mxCell id="aXVEYFe5cARRdrmqYQfY-27" value="Diagnosis Result" style="endArrow=classic;html=1;rounded=0;entryX=0.5;entryY=0;entryDx=0;entryDy=0;" edge="1" parent="1" source="Bff2i-X7J1a3gPwycmxD-22" target="aXVEYFe5cARRdrmqYQfY-26">
          <mxGeometry width="50" height="50" relative="1" as="geometry">
            <mxPoint x="260" y="560" as="sourcePoint" />
            <mxPoint x="310" y="510" as="targetPoint" />
          </mxGeometry>
        </mxCell>
        <mxCell id="aXVEYFe5cARRdrmqYQfY-28" value="&amp;nbsp;D2&amp;nbsp; &amp;nbsp; Triage Assessment" style="html=1;dashed=0;whiteSpace=wrap;shape=mxgraph.dfd.dataStoreID;align=left;spacingLeft=3;points=[[0,0],[0.5,0],[1,0],[0,0.5],[1,0.5],[0,1],[0.5,1],[1,1]];" vertex="1" parent="1">
          <mxGeometry x="840" y="-110" width="160" height="30" as="geometry" />
        </mxCell>
        <mxCell id="aXVEYFe5cARRdrmqYQfY-29" value="Request Diagnosis Result" style="endArrow=classic;html=1;rounded=0;entryX=0;entryY=0.5;entryDx=0;entryDy=0;exitX=1.01;exitY=0.57;exitDx=0;exitDy=0;exitPerimeter=0;" edge="1" parent="1" source="aXVEYFe5cARRdrmqYQfY-9" target="aXVEYFe5cARRdrmqYQfY-28">
          <mxGeometry width="50" height="50" relative="1" as="geometry">
            <mxPoint x="680" y="10" as="sourcePoint" />
            <mxPoint x="730" y="-40" as="targetPoint" />
          </mxGeometry>
        </mxCell>
        <mxCell id="aXVEYFe5cARRdrmqYQfY-30" value="Send Diagnosis Results" style="endArrow=classic;html=1;rounded=0;exitX=0.581;exitY=1.033;exitDx=0;exitDy=0;exitPerimeter=0;" edge="1" parent="1" source="aXVEYFe5cARRdrmqYQfY-28" target="aXVEYFe5cARRdrmqYQfY-9">
          <mxGeometry width="50" height="50" relative="1" as="geometry">
            <mxPoint x="870" y="30" as="sourcePoint" />
            <mxPoint x="920" y="-20" as="targetPoint" />
            <Array as="points">
              <mxPoint x="730" y="10" />
            </Array>
          </mxGeometry>
        </mxCell>
        <mxCell id="aXVEYFe5cARRdrmqYQfY-31" value="&amp;nbsp;D3&amp;nbsp; &amp;nbsp; Appointments" style="html=1;dashed=0;whiteSpace=wrap;shape=mxgraph.dfd.dataStoreID;align=left;spacingLeft=3;points=[[0,0],[0.5,0],[1,0],[0,0.5],[1,0.5],[0,1],[0.5,1],[1,1]];" vertex="1" parent="1">
          <mxGeometry x="-300" y="555" width="160" height="30" as="geometry" />
        </mxCell>
        <mxCell id="aXVEYFe5cARRdrmqYQfY-32" value="Patient Appointment Confirmation details" style="endArrow=classic;html=1;rounded=0;entryX=0.725;entryY=0.967;entryDx=0;entryDy=0;entryPerimeter=0;exitX=0.5;exitY=0;exitDx=0;exitDy=0;" edge="1" parent="1" source="aXVEYFe5cARRdrmqYQfY-18" target="aXVEYFe5cARRdrmqYQfY-31">
          <mxGeometry width="50" height="50" relative="1" as="geometry">
            <mxPoint x="-270" y="700" as="sourcePoint" />
            <mxPoint x="-220" y="650" as="targetPoint" />
          </mxGeometry>
        </mxCell>
        <mxCell id="aXVEYFe5cARRdrmqYQfY-33" value="" style="endArrow=classic;html=1;rounded=0;entryX=0.027;entryY=0.327;entryDx=0;entryDy=0;entryPerimeter=0;exitX=1;exitY=0.4;exitDx=0;exitDy=0;exitPerimeter=0;" edge="1" parent="1" source="Bff2i-X7J1a3gPwycmxD-25" target="aXVEYFe5cARRdrmqYQfY-3">
          <mxGeometry width="50" height="50" relative="1" as="geometry">
            <mxPoint x="540" y="520" as="sourcePoint" />
            <mxPoint x="540" y="490" as="targetPoint" />
          </mxGeometry>
        </mxCell>
      </root>
    </mxGraphModel>
  </diagram>
</mxfile>
